<svg xmlns="http://www.w3.org/2000/svg" viewBox="0 0 512 512">
  <defs>
    <linearGradient id="g" x1="0" y1="0" x2="1" y2="1">
      <stop offset="0" stop-color="#7c6cff"/>
      <stop offset="1" stop-color="#ff7a59"/>
    </linearGradient>
  </defs>
  <rect width="512" height="512" rx="112" fill="url(#g)"/>
  <path d="M136 150h240a44 44 0 0 1 44 44v112a44 44 0 0 1-44 44H250l-72 56v-56h-42a44 44 0 0 1-44-44V194a44 44 0 0 1 44-44z" fill="#fff"/>
  <rect x="236" y="186" width="40" height="84" rx="20" fill="#6d5dfc"/>
  <path d="M206 250a50 50 0 0 0 100 0" fill="none" stroke="#6d5dfc" stroke-width="16" stroke-linecap="round"/>
  <path d="M256 300v18" stroke="#6d5dfc" stroke-width="16" stroke-linecap="round"/>
</svg>
